<svg width="18" height="18" viewBox="0 0 18 18" fill="none" xmlns="http://www.w3.org/2000/svg">
<path d="M9.69658 2.49658C9.69658 2.11176 9.38462 1.7998 8.9998 1.7998C8.61499 1.7998 8.30303 2.11176 8.30303 2.49658V8.30303H2.49658C2.11176 8.30303 1.7998 8.61499 1.7998 8.9998C1.7998 9.38462 2.11176 9.69658 2.49658 9.69658H8.30303V15.503C8.30303 15.8878 8.61499 16.1998 8.9998 16.1998C9.38462 16.1998 9.69658 15.8878 9.69658 15.503V9.69658H15.503C15.8878 9.69658 16.1998 9.38462 16.1998 8.9998C16.1998 8.61499 15.8878 8.30303 15.503 8.30303H9.69658V2.49658Z" fill="#FBFBFB"/>
</svg>
